<svg width="1528" height="622" viewBox="0 0 1528 622" fill="none" xmlns="http://www.w3.org/2000/svg">
<path fill-rule="evenodd" clip-rule="evenodd" d="M1480.35 1.16127C987.153 116.55 353.625 96.2371 47.6547 1.16127C22.2748 -6.72523 0 27.0028 0 58.5871C0 226.938 0 395.291 0 563.642C0 595.226 21.6865 625.344 47.6547 621.068C262.305 585.73 487.126 568.883 730.683 559.69C971.929 550.584 1229.65 553.335 1480.35 621.068C1505.92 627.978 1528 595.226 1528 563.642C1528 395.291 1528 226.939 1528 58.5871C1528 27.0028 1506.07 -4.8587 1480.35 1.16127Z" fill="url(#paint0_linear_35_601)"/>
<defs>
<linearGradient id="paint0_linear_35_601" x1="1528" y1="363.507" x2="6.13675e-06" y2="363.507" gradientUnits="userSpaceOnUse">
<stop stop-color="#313896"/>
<stop offset="1" stop-color="#00D7FF"/>
</linearGradient>
</defs>
</svg>
