<svg width="261" height="32" viewBox="0 0 261 32" fill="none" xmlns="http://www.w3.org/2000/svg">
<path d="M2 17.0012C1.17157 17.0012 0.5 17.6728 0.5 18.5012C0.5 19.3297 1.17157 20.0012 2 20.0012V17.0012ZM97.0099 14.3005L95.8312 13.3728L97.0099 14.3005ZM72.9815 9.96838L71.483 9.89974L72.9815 9.96838ZM260.905 14.3005L243.861 11.2175L249.713 27.5195L260.905 14.3005ZM2 20.0012C2.01786 20.0012 2.03588 20.0012 2.05405 20.0012C2.07222 20.0012 2.09054 20.0012 2.10902 20.0012C2.12749 20.0012 2.14612 20.0012 2.1649 20.0012C2.18368 20.0012 2.20262 20.0012 2.2217 20.0012C2.24078 20.0012 2.26002 20.0012 2.2794 20.0012C2.29879 20.0012 2.31832 20.0012 2.33801 20.0012C2.3577 20.0012 2.37753 20.0012 2.39752 20.0012C2.4175 20.0012 2.43764 20.0012 2.45792 20.0012C2.47821 20.0012 2.49864 20.0012 2.51922 20.0012C2.5398 20.0012 2.56053 20.0012 2.58141 20.0012C2.60229 20.0012 2.62331 20.0012 2.64449 20.0012C2.66566 20.0012 2.68698 20.0012 2.70844 20.0012C2.72991 20.0012 2.75152 20.0012 2.77328 20.0012C2.79504 20.0012 2.81694 20.0012 2.83899 20.0012C2.86104 20.0012 2.88324 20.0012 2.90558 20.0012C2.92792 20.0012 2.9504 20.0012 2.97303 20.0012C2.99566 20.0012 3.01843 20.0012 3.04135 20.0012C3.06426 20.0012 3.08732 20.0012 3.11053 20.0012C3.13373 20.0012 3.15707 20.0012 3.18056 20.0012C3.20405 20.0012 3.22768 20.0012 3.25145 20.0012C3.27522 20.0012 3.29914 20.0012 3.32319 20.0012C3.34725 20.0012 3.37144 20.0012 3.39578 20.0012C3.42011 20.0012 3.44459 20.0012 3.46921 20.0012C3.49382 20.0012 3.51858 20.0012 3.54348 20.0012C3.56837 20.0012 3.59341 20.0012 3.61858 20.0012C3.64376 20.0012 3.66907 20.0012 3.69452 20.0012C3.71997 20.0012 3.74556 20.0012 3.77128 20.0012C3.79701 20.0012 3.82287 20.0012 3.84888 20.0012C3.87488 20.0012 3.90101 20.0012 3.92729 20.0012C3.95356 20.0012 3.97997 20.0012 4.00652 20.0012C4.03306 20.0012 4.05975 20.0012 4.08656 20.0012C4.11338 20.0012 4.14033 20.0012 4.16742 20.0012C4.1945 20.0012 4.22172 20.0012 4.24908 20.0012C4.27643 20.0012 4.30392 20.0012 4.33154 20.0012C4.35917 20.0012 4.38692 20.0012 4.41481 20.0012C4.4427 20.0012 4.47072 20.0012 4.49887 20.0012C4.52702 20.0012 4.55531 20.0012 4.58372 20.0012C4.61214 20.0012 4.64069 20.0012 4.66937 20.0012C4.69805 20.0012 4.72686 20.0012 4.7558 20.0012C4.78474 20.0012 4.81381 20.0012 4.84301 20.0012C4.87221 20.0012 4.90154 20.0012 4.931 20.0012C4.96045 20.0012 4.99004 20.0012 5.01976 20.0012C5.04947 20.0012 5.07932 20.0012 5.10929 20.0012C5.13927 20.0012 5.16937 20.0012 5.19959 20.0012C5.22982 20.0012 5.26018 20.0012 5.29066 20.0012C5.32114 20.0012 5.35175 20.0012 5.38248 20.0012C5.41322 20.0012 5.44408 20.0012 5.47507 20.0012C5.50605 20.0012 5.53716 20.0012 5.5684 20.0012C5.59964 20.0012 5.631 20.0012 5.66249 20.0012C5.69397 20.0012 5.72558 20.0012 5.75732 20.0012C5.78905 20.0012 5.82091 20.0012 5.85289 20.0012C5.88487 20.0012 5.91697 20.0012 5.9492 20.0012C5.98143 20.0012 6.01377 20.0012 6.04625 20.0012C6.07872 20.0012 6.11131 20.0012 6.14402 20.0012C6.17674 20.0012 6.20957 20.0012 6.24253 20.0012C6.27548 20.0012 6.30856 20.0012 6.34176 20.0012C6.37495 20.0012 6.40827 20.0012 6.44171 20.0012C6.47514 20.0012 6.5087 20.0012 6.54237 20.0012C6.57605 20.0012 6.60984 20.0012 6.64375 20.0012C6.67766 20.0012 6.71169 20.0012 6.74584 20.0012C6.77999 20.0012 6.81426 20.0012 6.84864 20.0012C6.88302 20.0012 6.91752 20.0012 6.95214 20.0012C6.98675 20.0012 7.02149 20.0012 7.05633 20.0012C7.09118 20.0012 7.12615 20.0012 7.16123 20.0012C7.19631 20.0012 7.2315 20.0012 7.26681 20.0012C7.30212 20.0012 7.33755 20.0012 7.37308 20.0012C7.40862 20.0012 7.44427 20.0012 7.48004 20.0012C7.51581 20.0012 7.55169 20.0012 7.58768 20.0012C7.62367 20.0012 7.65978 20.0012 7.69599 20.0012C7.73221 20.0012 7.76854 20.0012 7.80498 20.0012C7.84142 20.0012 7.87798 20.0012 7.91464 20.0012C7.95131 20.0012 7.98808 20.0012 8.02497 20.0012C8.06185 20.0012 8.09885 20.0012 8.13596 20.0012C8.17306 20.0012 8.21028 20.0012 8.2476 20.0012C8.28493 20.0012 8.32237 20.0012 8.35991 20.0012C8.39745 20.0012 8.4351 20.0012 8.47286 20.0012C8.51062 20.0012 8.54849 20.0012 8.58647 20.0012C8.62444 20.0012 8.66253 20.0012 8.70072 20.0012C8.73891 20.0012 8.7772 20.0012 8.81561 20.0012C8.85401 20.0012 8.89252 20.0012 8.93114 20.0012C8.96975 20.0012 9.00847 20.0012 9.0473 20.0012C9.08612 20.0012 9.12506 20.0012 9.16409 20.0012C9.20313 20.0012 9.24227 20.0012 9.28151 20.0012C9.32076 20.0012 9.3601 20.0012 9.39955 20.0012C9.439 20.0012 9.47856 20.0012 9.51822 20.0012C9.55787 20.0012 9.59763 20.0012 9.6375 20.0012C9.67736 20.0012 9.71732 20.0012 9.75739 20.0012C9.79745 20.0012 9.83762 20.0012 9.87789 20.0012C9.91815 20.0012 9.95852 20.0012 9.99899 20.0012C10.0395 20.0012 10.08 20.0012 10.1207 20.0012C10.1614 20.0012 10.2021 20.0012 10.243 20.0012C10.2839 20.0012 10.3248 20.0012 10.3659 20.0012C10.407 20.0012 10.4481 20.0012 10.4894 20.0012C10.5307 20.0012 10.572 20.0012 10.6135 20.0012C10.6549 20.0012 10.6965 20.0012 10.7381 20.0012C10.7798 20.0012 10.8215 20.0012 10.8634 20.0012C10.9052 20.0012 10.9472 20.0012 10.9892 20.0012C11.0312 20.0012 11.0734 20.0012 11.1156 20.0012C11.1578 20.0012 11.2001 20.0012 11.2425 20.0012C11.285 20.0012 11.3275 20.0012 11.3701 20.0012C11.4127 20.0012 11.4554 20.0012 11.4982 20.0012C11.5409 20.0012 11.5838 20.0012 11.6268 20.0012C11.6698 20.0012 11.7128 20.0012 11.756 20.0012C11.7992 20.0012 11.8424 20.0012 11.8858 20.0012C11.9291 20.0012 11.9725 20.0012 12.0161 20.0012C12.0596 20.0012 12.1032 20.0012 12.1469 20.0012C12.1906 20.0012 12.2344 20.0012 12.2783 20.0012C12.3222 20.0012 12.3661 20.0012 12.4102 20.0012C12.4543 20.0012 12.4984 20.0012 12.5427 20.0012C12.5869 20.0012 12.6312 20.0012 12.6756 20.0012C12.7201 20.0012 12.7646 20.0012 12.8091 20.0012C12.8537 20.0012 12.8984 20.0012 12.9432 20.0012C12.9879 20.0012 13.0328 20.0012 13.0777 20.0012C13.1227 20.0012 13.1677 20.0012 13.2128 20.0012C13.2579 20.0012 13.3031 20.0012 13.3484 20.0012C13.3937 20.0012 13.439 20.0012 13.4845 20.0012C13.5299 20.0012 13.5754 20.0012 13.621 20.0012C13.6667 20.0012 13.7124 20.0012 13.7581 20.0012C13.8039 20.0012 13.8498 20.0012 13.8957 20.0012C13.9417 20.0012 13.9877 20.0012 14.0338 20.0012C14.0799 20.0012 14.1261 20.0012 14.1724 20.0012C14.2187 20.0012 14.265 20.0012 14.3114 20.0012C14.3579 20.0012 14.4044 20.0012 14.451 20.0012C14.4976 20.0012 14.5442 20.0012 14.591 20.0012C14.6378 20.0012 14.6846 20.0012 14.7315 20.0012C14.7784 20.0012 14.8254 20.0012 14.8725 20.0012C14.9195 20.0012 14.9667 20.0012 15.0139 20.0012C15.0611 20.0012 15.1084 20.0012 15.1558 20.0012C15.2032 20.0012 15.2506 20.0012 15.2982 20.0012C15.3457 20.0012 15.3933 20.0012 15.441 20.0012C15.4887 20.0012 15.5364 20.0012 15.5843 20.0012C15.6321 20.0012 15.68 20.0012 15.728 20.0012C15.776 20.0012 15.824 20.0012 15.8721 20.0012C15.9203 20.0012 15.9685 20.0012 16.0168 20.0012C16.065 20.0012 16.1134 20.0012 16.1618 20.0012C16.2102 20.0012 16.2587 20.0012 16.3073 20.0012C16.3559 20.0012 16.4045 20.0012 16.4532 20.0012C16.5019 20.0012 16.5507 20.0012 16.5996 20.0012C16.6484 20.0012 16.6974 20.0012 16.7464 20.0012C16.7953 20.0012 16.8444 20.0012 16.8935 20.0012C16.9427 20.0012 16.9919 20.0012 17.0412 20.0012C17.0904 20.0012 17.1398 20.0012 17.1892 20.0012C17.2386 20.0012 17.2881 20.0012 17.3376 20.0012C17.3872 20.0012 17.4368 20.0012 17.4865 20.0012C17.5362 20.0012 17.5859 20.0012 17.6357 20.0012C17.6855 20.0012 17.7354 20.0012 17.7854 20.0012C17.8353 20.0012 17.8853 20.0012 17.9354 20.0012C17.9855 20.0012 18.0357 20.0012 18.0859 20.0012C18.1361 20.0012 18.1863 20.0012 18.2367 20.0012C18.287 20.0012 18.3374 20.0012 18.3879 20.0012C18.4384 20.0012 18.4889 20.0012 18.5395 20.0012C18.5901 20.0012 18.6408 20.0012 18.6915 20.0012C18.7422 20.0012 18.793 20.0012 18.8438 20.0012C18.8947 20.0012 18.9456 20.0012 18.9965 20.0012C19.0475 20.0012 19.0985 20.0012 19.1496 20.0012C19.2007 20.0012 19.2519 20.0012 19.3031 20.0012C19.3543 20.0012 19.4056 20.0012 19.4569 20.0012C19.5082 20.0012 19.5596 20.0012 19.6111 20.0012C19.6625 20.0012 19.714 20.0012 19.7656 20.0012C19.8171 20.0012 19.8688 20.0012 19.9205 20.0012C19.9721 20.0012 20.0239 20.0012 20.0757 20.0012C20.1275 20.0012 20.1793 20.0012 20.2312 20.0012C20.2831 20.0012 20.3351 20.0012 20.3871 20.0012C20.4391 20.0012 20.4912 20.0012 20.5434 20.0012C20.5955 20.0012 20.6477 20.0012 20.6999 20.0012C20.7522 20.0012 20.8045 20.0012 20.8568 20.0012C20.9092 20.0012 20.9616 20.0012 21.014 20.0012C21.0665 20.0012 21.119 20.0012 21.1716 20.0012C21.2241 20.0012 21.2767 20.0012 21.3294 20.0012C21.3821 20.0012 21.4348 20.0012 21.4876 20.0012C21.5404 20.0012 21.5932 20.0012 21.6461 20.0012C21.6989 20.0012 21.7519 20.0012 21.8048 20.0012C21.8578 20.0012 21.9109 20.0012 21.9639 20.0012C22.017 20.0012 22.0701 20.0012 22.1233 20.0012C22.1765 20.0012 22.2297 20.0012 22.283 20.0012C22.3363 20.0012 22.3896 20.0012 22.443 20.0012C22.4963 20.0012 22.5498 20.0012 22.6032 20.0012C22.6567 20.0012 22.7102 20.0012 22.7638 20.0012C22.8173 20.0012 22.8709 20.0012 22.9246 20.0012C22.9783 20.0012 23.032 20.0012 23.0857 20.0012C23.1395 20.0012 23.1932 20.0012 23.2471 20.0012C23.3009 20.0012 23.3548 20.0012 23.4087 20.0012C23.4627 20.0012 23.5166 20.0012 23.5706 20.0012C23.6247 20.0012 23.6787 20.0012 23.7328 20.0012C23.7869 20.0012 23.8411 20.0012 23.8953 20.0012C23.9494 20.0012 24.0037 20.0012 24.0579 20.0012C24.1122 20.0012 24.1665 20.0012 24.2209 20.0012C24.2752 20.0012 24.3296 20.0012 24.3841 20.0012C24.4385 20.0012 24.493 20.0012 24.5475 20.0012C24.602 20.0012 24.6566 20.0012 24.7112 20.0012C24.7658 20.0012 24.8204 20.0012 24.8751 20.0012C24.9298 20.0012 24.9845 20.0012 25.0393 20.0012C25.094 20.0012 25.1488 20.0012 25.2037 20.0012C25.2585 20.0012 25.3134 20.0012 25.3683 20.0012C25.4232 20.0012 25.4781 20.0012 25.5331 20.0012C25.5881 20.0012 25.6431 20.0012 25.6981 20.0012C25.7532 20.0012 25.8083 20.0012 25.8634 20.0012C25.9185 20.0012 25.9737 20.0012 26.0289 20.0012C26.0841 20.0012 26.1393 20.0012 26.1946 20.0012C26.2498 20.0012 26.3051 20.0012 26.3605 20.0012C26.4158 20.0012 26.4712 20.0012 26.5266 20.0012C26.582 20.0012 26.6374 20.0012 26.6929 20.0012C26.7483 20.0012 26.8038 20.0012 26.8594 20.0012C26.9149 20.0012 26.9705 20.0012 27.026 20.0012C27.0816 20.0012 27.1373 20.0012 27.1929 20.0012C27.2486 20.0012 27.3042 20.0012 27.36 20.0012C27.4157 20.0012 27.4714 20.0012 27.5272 20.0012C27.583 20.0012 27.6388 20.0012 27.6946 20.0012C27.7504 20.0012 27.8063 20.0012 27.8622 20.0012C27.9181 20.0012 27.974 20.0012 28.0299 20.0012C28.0859 20.0012 28.1418 20.0012 28.1978 20.0012C28.2538 20.0012 28.3099 20.0012 28.3659 20.0012C28.422 20.0012 28.4781 20.0012 28.5342 20.0012C28.5903 20.0012 28.6464 20.0012 28.7026 20.0012C28.7587 20.0012 28.8149 20.0012 28.8711 20.0012C28.9273 20.0012 28.9835 20.0012 29.0398 20.0012C29.096 20.0012 29.1523 20.0012 29.2086 20.0012C29.2649 20.0012 29.3213 20.0012 29.3776 20.0012C29.4339 20.0012 29.4903 20.0012 29.5467 20.0012C29.6031 20.0012 29.6595 20.0012 29.716 20.0012C29.7724 20.0012 29.8289 20.0012 29.8853 20.0012C29.9418 20.0012 29.9983 20.0012 30.0548 20.0012C30.1114 20.0012 30.1679 20.0012 30.2245 20.0012C30.281 20.0012 30.3376 20.0012 30.3942 20.0012C30.4508 20.0012 30.5074 20.0012 30.5641 20.0012C30.6207 20.0012 30.6774 20.0012 30.734 20.0012C30.7907 20.0012 30.8474 20.0012 30.9041 20.0012C30.9608 20.0012 31.0175 20.0012 31.0743 20.0012C31.131 20.0012 31.1878 20.0012 31.2446 20.0012C31.3014 20.0012 31.3581 20.0012 31.415 20.0012C31.4718 20.0012 31.5286 20.0012 31.5854 20.0012C31.6423 20.0012 31.6991 20.0012 31.756 20.0012C31.8129 20.0012 31.8697 20.0012 31.9266 20.0012C31.9835 20.0012 32.0405 20.0012 32.0974 20.0012C32.1543 20.0012 32.2112 20.0012 32.2682 20.0012C32.3251 20.0012 32.3821 20.0012 32.4391 20.0012C32.4961 20.0012 32.553 20.0012 32.61 20.0012C32.667 20.0012 32.724 20.0012 32.7811 20.0012C32.8381 20.0012 32.8951 20.0012 32.9522 20.0012C33.0092 20.0012 33.0663 20.0012 33.1233 20.0012C33.1804 20.0012 33.2375 20.0012 33.2945 20.0012C33.3516 20.0012 33.4087 20.0012 33.4658 20.0012C33.5229 20.0012 33.58 20.0012 33.6371 20.0012C33.6942 20.0012 33.7514 20.0012 33.8085 20.0012C33.8656 20.0012 33.9227 20.0012 33.9799 20.0012C34.037 20.0012 34.0942 20.0012 34.1513 20.0012C34.2085 20.0012 34.2657 20.0012 34.3228 20.0012C34.38 20.0012 34.4372 20.0012 34.4943 20.0012C34.5515 20.0012 34.6087 20.0012 34.6659 20.0012C34.7231 20.0012 34.7803 20.0012 34.8374 20.0012C34.8946 20.0012 34.9518 20.0012 35.009 20.0012C35.0662 20.0012 35.1234 20.0012 35.1806 20.0012C35.2379 20.0012 35.2951 20.0012 35.3523 20.0012C35.4095 20.0012 35.4667 20.0012 35.5239 20.0012C35.5811 20.0012 35.6383 20.0012 35.6955 20.0012C35.7528 20.0012 35.81 20.0012 35.8672 20.0012C35.9244 20.0012 35.9816 20.0012 36.0388 20.0012C36.0961 20.0012 36.1533 20.0012 36.2105 20.0012C36.2677 20.0012 36.3249 20.0012 36.3821 20.0012C36.4393 20.0012 36.4965 20.0012 36.5537 20.0012C36.6109 20.0012 36.6681 20.0012 36.7253 20.0012C36.7825 20.0012 36.8397 20.0012 36.8969 20.0012C36.9541 20.0012 37.0113 20.0012 37.0685 20.0012C37.1257 20.0012 37.1829 20.0012 37.2401 20.0012C37.2972 20.0012 37.3544 20.0012 37.4116 20.0012C37.4687 20.0012 37.5259 20.0012 37.583 20.0012C37.6402 20.0012 37.6974 20.0012 37.7545 20.0012C37.8116 20.0012 37.8688 20.0012 37.9259 20.0012C37.983 20.0012 38.0402 20.0012 38.0973 20.0012C38.1544 20.0012 38.2115 20.0012 38.2686 20.0012C38.3257 20.0012 38.3828 20.0012 38.4398 20.0012C38.4969 20.0012 38.554 20.0012 38.6111 20.0012C38.6681 20.0012 38.7252 20.0012 38.7822 20.0012C38.8393 20.0012 38.8963 20.0012 38.9533 20.0012C39.0103 20.0012 39.0673 20.0012 39.1243 20.0012C39.1813 20.0012 39.2383 20.0012 39.2953 20.0012C39.3523 20.0012 39.4092 20.0012 39.4662 20.0012C39.5231 20.0012 39.5801 20.0012 39.637 20.0012C39.6939 20.0012 39.7508 20.0012 39.8077 20.0012C39.8646 20.0012 39.9215 20.0012 39.9784 20.0012C40.0353 20.0012 40.0921 20.0012 40.149 20.0012C40.2058 20.0012 40.2626 20.0012 40.3194 20.0012C40.3762 20.0012 40.433 20.0012 40.4898 20.0012C40.5466 20.0012 40.6033 20.0012 40.6601 20.0012C40.7168 20.0012 40.7736 20.0012 40.8303 20.0012C40.887 20.0012 40.9437 20.0012 41.0004 20.0012C41.057 20.0012 41.1137 20.0012 41.1703 20.0012C41.227 20.0012 41.2836 20.0012 41.3402 20.0012C41.3968 20.0012 41.4534 20.0012 41.5099 20.0012C41.5665 20.0012 41.623 20.0012 41.6795 20.0012C41.7361 20.0012 41.7926 20.0012 41.849 20.0012C41.9055 20.0012 41.962 20.0012 42.0184 20.0012C42.0749 20.0012 42.1313 20.0012 42.1877 20.0012C42.2441 20.0012 42.3004 20.0012 42.3568 20.0012C42.4131 20.0012 42.4695 20.0012 42.5258 20.0012C42.5821 20.0012 42.6383 20.0012 42.6946 20.0012C42.7508 20.0012 42.8071 20.0012 42.8633 20.0012C42.9195 20.0012 42.9757 20.0012 43.0318 20.0012C43.088 20.0012 43.1441 20.0012 43.2002 20.0012C43.2563 20.0012 43.3124 20.0012 43.3685 20.0012C43.4245 20.0012 43.4805 20.0012 43.5365 20.0012C43.5925 20.0012 43.6485 20.0012 43.7044 20.0012C43.7604 20.0012 43.8163 20.0012 43.8722 20.0012C43.9281 20.0012 43.9839 20.0012 44.0398 20.0012C44.0956 20.0012 44.1514 20.0012 44.2072 20.0012C44.263 20.0012 44.3187 20.0012 44.3744 20.0012C44.4301 20.0012 44.4858 20.0012 44.5415 20.0012C44.5971 20.0012 44.6527 20.0012 44.7083 20.0012C44.7639 20.0012 44.8195 20.0012 44.875 20.0012C44.9305 20.0012 44.986 20.0012 45.0415 20.0012C45.097 20.0012 45.1524 20.0012 45.2078 20.0012C45.2632 20.0012 45.3186 20.0012 45.3739 20.0012C45.4292 20.0012 45.4845 20.0012 45.5398 20.0012C45.5951 20.0012 45.6503 20.0012 45.7055 20.0012C45.7607 20.0012 45.8158 20.0012 45.871 20.0012C45.9261 20.0012 45.9812 20.0012 46.0362 20.0012C46.0913 20.0012 46.1463 20.0012 46.2013 20.0012C46.2563 20.0012 46.3112 20.0012 46.3661 20.0012C46.421 20.0012 46.4759 20.0012 46.5307 20.0012C46.5856 20.0012 46.6404 20.0012 46.6951 20.0012C46.7499 20.0012 46.8046 20.0012 46.8593 20.0012C46.9139 20.0012 46.9686 20.0012 47.0232 20.0012C47.0778 20.0012 47.1323 20.0012 47.1869 20.0012C47.2414 20.0012 47.2959 20.0012 47.3503 20.0012C47.4047 20.0012 47.4591 20.0012 47.5135 20.0012C47.5678 20.0012 47.6222 20.0012 47.6764 20.0012C47.7307 20.0012 47.7849 20.0012 47.8391 20.0012C47.8933 20.0012 47.9475 20.0012 48.0016 20.0012C48.0557 20.0012 48.1097 20.0012 48.1637 20.0012C48.2178 20.0012 48.2717 20.0012 48.3257 20.0012C48.3796 20.0012 48.4335 20.0012 48.4873 20.0012C48.5411 20.0012 48.5949 20.0012 48.6487 20.0012C48.7024 20.0012 48.7561 20.0012 48.8098 20.0012C48.8634 20.0012 48.917 20.0012 48.9706 20.0012C49.0242 20.0012 49.0777 20.0012 49.1312 20.0012C49.1846 20.0012 49.238 20.0012 49.2914 20.0012C49.3448 20.0012 49.3981 20.0012 49.4514 20.0012C49.5047 20.0012 49.5579 20.0012 49.6111 20.0012C49.6642 20.0012 49.7174 20.0012 49.7705 20.0012C49.8235 20.0012 49.8766 20.0012 49.9295 20.0012C49.9825 20.0012 50.0354 20.0012 50.0883 20.0012C50.1412 20.0012 50.194 20.0012 50.2468 20.0012C50.2996 20.0012 50.3523 20.0012 50.405 20.0012C50.4576 20.0012 50.5103 20.0012 50.5628 20.0012C50.6154 20.0012 50.6679 20.0012 50.7204 20.0012C50.7728 20.0012 50.8252 20.0012 50.8776 20.0012C50.9299 20.0012 50.9822 20.0012 51.0345 20.0012C51.0867 20.0012 51.1389 20.0012 51.191 20.0012C51.2432 20.0012 51.2952 20.0012 51.3473 20.0012C51.3993 20.0012 51.4512 20.0012 51.5032 20.0012C51.5551 20.0012 51.6069 20.0012 51.6587 20.0012C51.7105 20.0012 51.7622 20.0012 51.8139 20.0012C51.8656 20.0012 51.9172 20.0012 51.9688 20.0012C52.0204 20.0012 52.0719 20.0012 52.1233 20.0012C52.1748 20.0012 52.2262 20.0012 52.2775 20.0012C52.3288 20.0012 52.3801 20.0012 52.4313 20.0012C52.4825 20.0012 52.5337 20.0012 52.5848 20.0012C52.6358 20.0012 52.6869 20.0012 52.7378 20.0012C52.7888 20.0012 52.8397 20.0012 52.8906 20.0012C52.9414 20.0012 52.9922 20.0012 53.0429 20.0012C53.0936 20.0012 53.1443 20.0012 53.1949 20.0012C53.2455 20.0012 53.296 20.0012 53.3465 20.0012C53.3969 20.0012 53.4473 20.0012 53.4977 20.0012C53.548 20.0012 53.5983 20.0012 53.6485 20.0012C53.6987 20.0012 53.7489 20.0012 53.799 20.0012C53.849 20.0012 53.8991 20.0012 53.949 20.0012C53.999 20.0012 54.0488 20.0012 54.0987 20.0012C54.1485 20.0012 54.1982 20.0012 54.2479 20.0012C54.2976 20.0012 54.3472 20.0012 54.3968 20.0012C54.4463 20.0012 54.4958 20.0012 54.5452 20.0012C54.5946 20.0012 54.6439 20.0012 54.6932 20.0012C54.7425 20.0012 54.7917 20.0012 54.8408 20.0012C54.89 20.0012 54.939 20.0012 54.988 20.0012C55.037 20.0012 55.086 20.0012 55.1348 20.0012C55.1837 20.0012 55.2324 20.0012 55.2812 20.0012C55.3299 20.0012 55.3785 20.0012 55.4271 20.0012C55.4756 20.0012 55.5241 20.0012 55.5726 20.0012C55.621 20.0012 55.6693 20.0012 55.7176 20.0012C55.7659 20.0012 55.8141 20.0012 55.8622 20.0012C55.9104 20.0012 55.9584 20.0012 56.0064 20.0012C56.0544 20.0012 56.1023 20.0012 56.1501 20.0012C56.198 20.0012 56.2457 20.0012 56.2934 20.0012C56.3411 20.0012 56.3887 20.0012 56.4362 20.0012C56.4837 20.0012 56.5312 20.0012 56.5786 20.0012C56.626 20.0012 56.6733 20.0012 56.7205 20.0012C56.7677 20.0012 56.8148 20.0012 56.8619 20.0012C56.909 20.0012 56.956 20.0012 57.0029 20.0012C57.0498 20.0012 57.0966 20.0012 57.1434 20.0012C57.1901 20.0012 57.2368 20.0012 57.2834 20.0012C57.33 20.0012 57.3765 20.0012 57.4229 20.0012C57.4694 20.0012 57.5157 20.0012 57.562 20.0012C57.6083 20.0012 57.6545 20.0012 57.7006 20.0012C57.7467 20.0012 57.7927 20.0012 57.8387 20.0012C57.8846 20.0012 57.9305 20.0012 57.9762 20.0012C58.022 20.0012 58.0677 20.0012 58.1133 20.0012C58.1589 20.0012 58.2045 20.0012 58.2499 20.0012C58.2954 20.0012 58.3407 20.0012 58.386 20.0012C58.4313 20.0012 58.4765 20.0012 58.5216 20.0012C58.5667 20.0012 58.6117 20.0012 58.6567 20.0012C58.7016 20.0012 58.7464 20.0012 58.7912 20.0012C58.836 20.0012 58.8806 20.0012 58.9252 20.0012C58.9698 20.0012 59.0143 20.0012 59.0587 20.0012C59.1032 20.0012 59.1475 20.0012 59.1917 20.0012C59.236 20.0012 59.2801 20.0012 59.3242 20.0012C59.3682 20.0012 59.4122 20.0012 59.4561 20.0012C59.5 20.0012 59.5438 20.0012 59.5875 20.0012C59.6312 20.0012 59.6748 20.0012 59.7183 20.0012C59.7619 20.0012 59.8053 20.0012 59.8486 20.0012C59.892 20.0012 59.9352 20.0012 59.9784 20.0012C60.0215 20.0012 60.0646 20.0012 60.1076 20.0012C60.1506 20.0012 60.1934 20.0012 60.2362 20.0012C60.279 20.0012 60.3217 20.0012 60.3643 20.0012C60.4069 20.0012 60.4494 20.0012 60.4918 20.0012C60.5343 20.0012 60.5766 20.0012 60.6188 20.0012C60.661 20.0012 60.7032 20.0012 60.7452 20.0012C60.7872 20.0012 60.8292 20.0012 60.871 20.0012C60.9129 20.0012 60.9546 20.0012 60.9963 20.0012C61.0379 20.0012 61.0795 20.0012 61.1209 20.0012C61.1624 20.0012 61.2037 20.0012 61.245 20.0012C61.2863 20.0012 61.3274 20.0012 61.3685 20.0012C61.4095 20.0012 61.4505 20.0012 61.4914 20.0012C61.5322 20.0012 61.573 20.0012 61.6137 20.0012C61.6544 20.0012 61.6949 20.0012 61.7354 20.0012C61.7759 20.0012 61.8162 20.0012 61.8565 20.0012C61.8968 20.0012 61.9369 20.0012 61.977 20.0012C62.0171 20.0012 62.057 20.0012 62.0969 20.0012C62.1367 20.0012 62.1765 20.0012 62.2162 20.0012C62.2558 20.0012 62.2954 20.0012 62.3348 20.0012C62.3743 20.0012 62.4136 20.0012 62.4529 20.0012C62.4921 20.0012 62.5313 20.0012 62.5703 20.0012C62.6093 20.0012 62.6483 20.0012 62.6871 20.0012C62.7259 20.0012 62.7646 20.0012 62.8032 20.0012C62.8419 20.0012 62.8804 20.0012 62.9188 20.0012C62.9572 20.0012 62.9955 20.0012 63.0337 20.0012C63.0719 20.0012 63.1099 20.0012 63.1479 20.0012C63.1859 20.0012 63.2238 20.0012 63.2615 20.0012C63.2993 20.0012 63.3369 20.0012 63.3745 20.0012C63.412 20.0012 63.4495 20.0012 63.4868 20.0012C63.5241 20.0012 63.5613 20.0012 63.5984 20.0012C63.6355 20.0012 63.6725 20.0012 63.7094 20.0012C63.7463 20.0012 63.7831 20.0012 63.8197 20.0012C63.8564 20.0012 63.893 20.0012 63.9294 20.0012C63.9658 20.0012 64.0022 20.0012 64.0384 20.0012C64.0746 20.0012 64.1107 20.0012 64.1467 20.0012C64.1827 20.0012 64.2186 20.0012 64.2543 20.0012C64.2901 20.0012 64.3258 20.0012 64.3613 20.0012C64.3968 20.0012 64.4323 20.0012 64.4676 20.0012C64.5029 20.0012 64.5381 20.0012 64.5732 20.0012C64.6082 20.0012 64.6432 20.0012 64.678 20.0012C64.7129 20.0012 64.7476 20.0012 64.7822 20.0012C64.8169 20.0012 64.8514 20.0012 64.8857 20.0012C64.9201 20.0012 64.9544 20.0012 64.9885 20.0012C65.0227 20.0012 65.0567 20.0012 65.0906 20.0012C65.1245 20.0012 65.1583 20.0012 65.192 20.0012C65.2257 20.0012 65.2592 20.0012 65.2927 20.0012C65.3261 20.0012 65.3594 20.0012 65.3926 20.0012C65.4258 20.0012 65.4589 20.0012 65.4919 20.0012C65.5248 20.0012 65.5576 20.0012 65.5904 20.0012C65.6231 20.0012 65.6557 20.0012 65.6881 20.0012C65.7206 20.0012 65.753 20.0012 65.7852 20.0012C65.8174 20.0012 65.8495 20.0012 65.8815 20.0012C65.9135 20.0012 65.9453 20.0012 65.9771 20.0012C66.0088 20.0012 66.0404 20.0012 66.0719 20.0012C66.1034 20.0012 66.1347 20.0012 66.166 20.0012C66.1972 20.0012 66.2283 20.0012 66.2593 20.0012C66.2903 20.0012 66.3212 20.0012 66.3519 20.0012C66.3826 20.0012 66.4132 20.0012 66.4437 20.0012C66.4742 20.0012 66.5046 20.0012 66.5348 20.0012C66.565 20.0012 66.5951 20.0012 66.6251 20.0012C66.6551 20.0012 66.6849 20.0012 66.7146 20.0012C66.7443 20.0012 66.7739 20.0012 66.8034 20.0012C66.8328 20.0012 66.8622 20.0012 66.8914 20.0012C66.9206 20.0012 66.9496 20.0012 66.9786 20.0012C67.0075 20.0012 67.0363 20.0012 67.065 20.0012C67.0937 20.0012 67.1222 20.0012 67.1507 20.0012C67.1791 20.0012 67.2074 20.0012 67.2355 20.0012C67.2637 20.0012 67.2917 20.0012 67.3196 20.0012C67.3475 20.0012 67.3752 20.0012 67.4028 20.0012C67.4305 20.0012 67.4579 20.0012 67.4853 20.0012C67.5127 20.0012 67.5399 20.0012 67.567 20.0012C67.594 20.0012 67.621 20.0012 67.6478 20.0012C67.6746 20.0012 67.7013 20.0012 67.7279 20.0012C67.7544 20.0012 67.7808 20.0012 67.8071 20.0012C67.8334 20.0012 67.8595 20.0012 67.8855 20.0012C67.9115 20.0012 67.9374 20.0012 67.9631 20.0012C67.9888 20.0012 68.0144 20.0012 68.0399 20.0012C68.0653 20.0012 68.0906 20.0012 68.1158 20.0012C68.141 20.0012 68.166 20.0012 68.1909 20.0012C68.2158 20.0012 68.2406 20.0012 68.2652 20.0012C68.2898 20.0012 68.3143 20.0012 68.3386 20.0012C68.3629 20.0012 68.3871 20.0012 68.4112 20.0012C68.4352 20.0012 68.4592 20.0012 68.4829 20.0012C68.5067 20.0012 68.5303 20.0012 68.5538 20.0012C68.5773 20.0012 68.6007 20.0012 68.6239 20.0012C68.6471 20.0012 68.6701 20.0012 68.693 20.0012C68.716 20.0012 68.7387 20.0012 68.7614 20.0012C68.784 20.0012 68.8065 20.0012 68.8288 20.0012C68.8511 20.0012 68.8733 20.0012 68.8954 20.0012C68.9174 20.0012 68.9393 20.0012 68.9611 20.0012C68.9829 20.0012 69.0045 20.0012 69.0259 20.0012C69.0474 20.0012 69.0687 20.0012 69.0899 20.0012C69.1111 20.0012 69.1321 20.0012 69.153 20.0012C69.1739 20.0012 69.1946 20.0012 69.2152 20.0012C69.2357 20.0012 69.2562 20.0012 69.2765 20.0012C69.2967 20.0012 69.3169 20.0012 69.3369 20.0012C69.3568 20.0012 69.3767 20.0012 69.3964 20.0012C69.4161 20.0012 69.4356 20.0012 69.455 20.0012C69.4744 20.0012 69.4936 20.0012 69.5127 20.0012C69.5318 20.0012 69.5507 20.0012 69.5695 20.0012C69.5883 20.0012 69.6069 20.0012 69.6254 20.0012C69.6438 20.0012 69.6622 20.0012 69.6803 20.0012C69.6985 20.0012 69.7165 20.0012 69.7344 20.0012V17.0012C69.7165 17.0012 69.6985 17.0012 69.6803 17.0012C69.6622 17.0012 69.6438 17.0012 69.6254 17.0012C69.6069 17.0012 69.5883 17.0012 69.5695 17.0012C69.5507 17.0012 69.5318 17.0012 69.5127 17.0012C69.4936 17.0012 69.4744 17.0012 69.455 17.0012C69.4356 17.0012 69.4161 17.0012 69.3964 17.0012C69.3767 17.0012 69.3568 17.0012 69.3369 17.0012C69.3169 17.0012 69.2967 17.0012 69.2765 17.0012C69.2562 17.0012 69.2357 17.0012 69.2152 17.0012C69.1946 17.0012 69.1739 17.0012 69.153 17.0012C69.1321 17.0012 69.1111 17.0012 69.0899 17.0012C69.0687 17.0012 69.0474 17.0012 69.0259 17.0012C69.0045 17.0012 68.9829 17.0012 68.9611 17.0012C68.9393 17.0012 68.9174 17.0012 68.8954 17.0012C68.8733 17.0012 68.8511 17.0012 68.8288 17.0012C68.8065 17.0012 68.784 17.0012 68.7614 17.0012C68.7387 17.0012 68.716 17.0012 68.693 17.0012C68.6701 17.0012 68.6471 17.0012 68.6239 17.0012C68.6007 17.0012 68.5773 17.0012 68.5538 17.0012C68.5303 17.0012 68.5067 17.0012 68.4829 17.0012C68.4592 17.0012 68.4352 17.0012 68.4112 17.0012C68.3871 17.0012 68.3629 17.0012 68.3386 17.0012C68.3143 17.0012 68.2898 17.0012 68.2652 17.0012C68.2406 17.0012 68.2158 17.0012 68.1909 17.0012C68.166 17.0012 68.141 17.0012 68.1158 17.0012C68.0906 17.0012 68.0653 17.0012 68.0399 17.0012C68.0144 17.0012 67.9888 17.0012 67.9631 17.0012C67.9374 17.0012 67.9115 17.0012 67.8855 17.0012C67.8595 17.0012 67.8334 17.0012 67.8071 17.0012C67.7808 17.0012 67.7544 17.0012 67.7279 17.0012C67.7013 17.0012 67.6746 17.0012 67.6478 17.0012C67.621 17.0012 67.594 17.0012 67.567 17.0012C67.5399 17.0012 67.5127 17.0012 67.4853 17.0012C67.4579 17.0012 67.4305 17.0012 67.4028 17.0012C67.3752 17.0012 67.3475 17.0012 67.3196 17.0012C67.2917 17.0012 67.2637 17.0012 67.2355 17.0012C67.2074 17.0012 67.1791 17.0012 67.1507 17.0012C67.1222 17.0012 67.0937 17.0012 67.065 17.0012C67.0363 17.0012 67.0075 17.0012 66.9786 17.0012C66.9496 17.0012 66.9206 17.0012 66.8914 17.0012C66.8622 17.0012 66.8328 17.0012 66.8034 17.0012C66.7739 17.0012 66.7443 17.0012 66.7146 17.0012C66.6849 17.0012 66.6551 17.0012 66.6251 17.0012C66.5951 17.0012 66.565 17.0012 66.5348 17.0012C66.5046 17.0012 66.4742 17.0012 66.4437 17.0012C66.4132 17.0012 66.3826 17.0012 66.3519 17.0012C66.3212 17.0012 66.2903 17.0012 66.2593 17.0012C66.2283 17.0012 66.1972 17.0012 66.166 17.0012C66.1347 17.0012 66.1034 17.0012 66.0719 17.0012C66.0404 17.0012 66.0088 17.0012 65.9771 17.0012C65.9453 17.0012 65.9135 17.0012 65.8815 17.0012C65.8495 17.0012 65.8174 17.0012 65.7852 17.0012C65.753 17.0012 65.7206 17.0012 65.6881 17.0012C65.6557 17.0012 65.6231 17.0012 65.5904 17.0012C65.5576 17.0012 65.5248 17.0012 65.4919 17.0012C65.4589 17.0012 65.4258 17.0012 65.3926 17.0012C65.3594 17.0012 65.3261 17.0012 65.2927 17.0012C65.2592 17.0012 65.2257 17.0012 65.192 17.0012C65.1583 17.0012 65.1245 17.0012 65.0906 17.0012C65.0567 17.0012 65.0227 17.0012 64.9885 17.0012C64.9544 17.0012 64.9201 17.0012 64.8857 17.0012C64.8514 17.0012 64.8169 17.0012 64.7822 17.0012C64.7476 17.0012 64.7129 17.0012 64.678 17.0012C64.6432 17.0012 64.6082 17.0012 64.5732 17.0012C64.5381 17.0012 64.5029 17.0012 64.4676 17.0012C64.4323 17.0012 64.3968 17.0012 64.3613 17.0012C64.3258 17.0012 64.2901 17.0012 64.2543 17.0012C64.2186 17.0012 64.1827 17.0012 64.1467 17.0012C64.1107 17.0012 64.0746 17.0012 64.0384 17.0012C64.0022 17.0012 63.9658 17.0012 63.9294 17.0012C63.893 17.0012 63.8564 17.0012 63.8197 17.0012C63.7831 17.0012 63.7463 17.0012 63.7094 17.0012C63.6725 17.0012 63.6355 17.0012 63.5984 17.0012C63.5613 17.0012 63.5241 17.0012 63.4868 17.0012C63.4495 17.0012 63.412 17.0012 63.3745 17.0012C63.3369 17.0012 63.2993 17.0012 63.2615 17.0012C63.2238 17.0012 63.1859 17.0012 63.1479 17.0012C63.1099 17.0012 63.0719 17.0012 63.0337 17.0012C62.9955 17.0012 62.9572 17.0012 62.9188 17.0012C62.8804 17.0012 62.8419 17.0012 62.8032 17.0012C62.7646 17.0012 62.7259 17.0012 62.6871 17.0012C62.6483 17.0012 62.6093 17.0012 62.5703 17.0012C62.5313 17.0012 62.4921 17.0012 62.4529 17.0012C62.4136 17.0012 62.3743 17.0012 62.3348 17.0012C62.2954 17.0012 62.2558 17.0012 62.2162 17.0012C62.1765 17.0012 62.1367 17.0012 62.0969 17.0012C62.057 17.0012 62.0171 17.0012 61.977 17.0012C61.9369 17.0012 61.8968 17.0012 61.8565 17.0012C61.8162 17.0012 61.7759 17.0012 61.7354 17.0012C61.6949 17.0012 61.6544 17.0012 61.6137 17.0012C61.573 17.0012 61.5322 17.0012 61.4914 17.0012C61.4505 17.0012 61.4095 17.0012 61.3685 17.0012C61.3274 17.0012 61.2863 17.0012 61.245 17.0012C61.2037 17.0012 61.1624 17.0012 61.1209 17.0012C61.0795 17.0012 61.0379 17.0012 60.9963 17.0012C60.9546 17.0012 60.9129 17.0012 60.871 17.0012C60.8292 17.0012 60.7872 17.0012 60.7452 17.0012C60.7032 17.0012 60.661 17.0012 60.6188 17.0012C60.5766 17.0012 60.5343 17.0012 60.4918 17.0012C60.4494 17.0012 60.4069 17.0012 60.3643 17.0012C60.3217 17.0012 60.279 17.0012 60.2362 17.0012C60.1934 17.0012 60.1506 17.0012 60.1076 17.0012C60.0646 17.0012 60.0215 17.0012 59.9784 17.0012C59.9352 17.0012 59.892 17.0012 59.8486 17.0012C59.8053 17.0012 59.7619 17.0012 59.7183 17.0012C59.6748 17.0012 59.6312 17.0012 59.5875 17.0012C59.5438 17.0012 59.5 17.0012 59.4561 17.0012C59.4122 17.0012 59.3682 17.0012 59.3242 17.0012C59.2801 17.0012 59.236 17.0012 59.1917 17.0012C59.1475 17.0012 59.1032 17.0012 59.0587 17.0012C59.0143 17.0012 58.9698 17.0012 58.9252 17.0012C58.8806 17.0012 58.836 17.0012 58.7912 17.0012C58.7464 17.0012 58.7016 17.0012 58.6567 17.0012C58.6117 17.0012 58.5667 17.0012 58.5216 17.0012C58.4765 17.0012 58.4313 17.0012 58.386 17.0012C58.3407 17.0012 58.2954 17.0012 58.2499 17.0012C58.2045 17.0012 58.1589 17.0012 58.1133 17.0012C58.0677 17.0012 58.022 17.0012 57.9762 17.0012C57.9305 17.0012 57.8846 17.0012 57.8387 17.0012C57.7927 17.0012 57.7467 17.0012 57.7006 17.0012C57.6545 17.0012 57.6083 17.0012 57.562 17.0012C57.5157 17.0012 57.4694 17.0012 57.4229 17.0012C57.3765 17.0012 57.33 17.0012 57.2834 17.0012C57.2368 17.0012 57.1901 17.0012 57.1434 17.0012C57.0966 17.0012 57.0498 17.0012 57.0029 17.0012C56.956 17.0012 56.909 17.0012 56.8619 17.0012C56.8148 17.0012 56.7677 17.0012 56.7205 17.0012C56.6733 17.0012 56.626 17.0012 56.5786 17.0012C56.5312 17.0012 56.4837 17.0012 56.4362 17.0012C56.3887 17.0012 56.3411 17.0012 56.2934 17.0012C56.2457 17.0012 56.198 17.0012 56.1501 17.0012C56.1023 17.0012 56.0544 17.0012 56.0064 17.0012C55.9584 17.0012 55.9104 17.0012 55.8622 17.0012C55.8141 17.0012 55.7659 17.0012 55.7176 17.0012C55.6693 17.0012 55.621 17.0012 55.5726 17.0012C55.5241 17.0012 55.4756 17.0012 55.4271 17.0012C55.3785 17.0012 55.3299 17.0012 55.2812 17.0012C55.2324 17.0012 55.1837 17.0012 55.1348 17.0012C55.086 17.0012 55.037 17.0012 54.988 17.0012C54.939 17.0012 54.89 17.0012 54.8408 17.0012C54.7917 17.0012 54.7425 17.0012 54.6932 17.0012C54.6439 17.0012 54.5946 17.0012 54.5452 17.0012C54.4958 17.0012 54.4463 17.0012 54.3968 17.0012C54.3472 17.0012 54.2976 17.0012 54.2479 17.0012C54.1982 17.0012 54.1485 17.0012 54.0987 17.0012C54.0488 17.0012 53.999 17.0012 53.949 17.0012C53.8991 17.0012 53.849 17.0012 53.799 17.0012C53.7489 17.0012 53.6987 17.0012 53.6485 17.0012C53.5983 17.0012 53.548 17.0012 53.4977 17.0012C53.4473 17.0012 53.3969 17.0012 53.3465 17.0012C53.296 17.0012 53.2455 17.0012 53.1949 17.0012C53.1443 17.0012 53.0936 17.0012 53.0429 17.0012C52.9922 17.0012 52.9414 17.0012 52.8906 17.0012C52.8397 17.0012 52.7888 17.0012 52.7378 17.0012C52.6869 17.0012 52.6358 17.0012 52.5848 17.0012C52.5337 17.0012 52.4825 17.0012 52.4313 17.0012C52.3801 17.0012 52.3288 17.0012 52.2775 17.0012C52.2262 17.0012 52.1748 17.0012 52.1233 17.0012C52.0719 17.0012 52.0204 17.0012 51.9688 17.0012C51.9172 17.0012 51.8656 17.0012 51.8139 17.0012C51.7622 17.0012 51.7105 17.0012 51.6587 17.0012C51.6069 17.0012 51.5551 17.0012 51.5032 17.0012C51.4512 17.0012 51.3993 17.0012 51.3473 17.0012C51.2952 17.0012 51.2432 17.0012 51.191 17.0012C51.1389 17.0012 51.0867 17.0012 51.0345 17.0012C50.9822 17.0012 50.9299 17.0012 50.8776 17.0012C50.8252 17.0012 50.7728 17.0012 50.7204 17.0012C50.6679 17.0012 50.6154 17.0012 50.5628 17.0012C50.5103 17.0012 50.4576 17.0012 50.405 17.0012C50.3523 17.0012 50.2996 17.0012 50.2468 17.0012C50.194 17.0012 50.1412 17.0012 50.0883 17.0012C50.0354 17.0012 49.9825 17.0012 49.9295 17.0012C49.8766 17.0012 49.8235 17.0012 49.7705 17.0012C49.7174 17.0012 49.6642 17.0012 49.6111 17.0012C49.5579 17.0012 49.5047 17.0012 49.4514 17.0012C49.3981 17.0012 49.3448 17.0012 49.2914 17.0012C49.238 17.0012 49.1846 17.0012 49.1312 17.0012C49.0777 17.0012 49.0242 17.0012 48.9706 17.0012C48.917 17.0012 48.8634 17.0012 48.8098 17.0012C48.7561 17.0012 48.7024 17.0012 48.6487 17.0012C48.5949 17.0012 48.5411 17.0012 48.4873 17.0012C48.4335 17.0012 48.3796 17.0012 48.3257 17.0012C48.2717 17.0012 48.2178 17.0012 48.1637 17.0012C48.1097 17.0012 48.0557 17.0012 48.0016 17.0012C47.9475 17.0012 47.8933 17.0012 47.8391 17.0012C47.7849 17.0012 47.7307 17.0012 47.6764 17.0012C47.6222 17.0012 47.5678 17.0012 47.5135 17.0012C47.4591 17.0012 47.4047 17.0012 47.3503 17.0012C47.2959 17.0012 47.2414 17.0012 47.1869 17.0012C47.1323 17.0012 47.0778 17.0012 47.0232 17.0012C46.9686 17.0012 46.9139 17.0012 46.8593 17.0012C46.8046 17.0012 46.7499 17.0012 46.6951 17.0012C46.6404 17.0012 46.5856 17.0012 46.5307 17.0012C46.4759 17.0012 46.421 17.0012 46.3661 17.0012C46.3112 17.0012 46.2563 17.0012 46.2013 17.0012C46.1463 17.0012 46.0913 17.0012 46.0362 17.0012C45.9812 17.0012 45.9261 17.0012 45.871 17.0012C45.8158 17.0012 45.7607 17.0012 45.7055 17.0012C45.6503 17.0012 45.5951 17.0012 45.5398 17.0012C45.4845 17.0012 45.4292 17.0012 45.3739 17.0012C45.3186 17.0012 45.2632 17.0012 45.2078 17.0012C45.1524 17.0012 45.097 17.0012 45.0415 17.0012C44.986 17.0012 44.9305 17.0012 44.875 17.0012C44.8195 17.0012 44.7639 17.0012 44.7083 17.0012C44.6527 17.0012 44.5971 17.0012 44.5415 17.0012C44.4858 17.0012 44.4301 17.0012 44.3744 17.0012C44.3187 17.0012 44.263 17.0012 44.2072 17.0012C44.1514 17.0012 44.0956 17.0012 44.0398 17.0012C43.9839 17.0012 43.9281 17.0012 43.8722 17.0012C43.8163 17.0012 43.7604 17.0012 43.7044 17.0012C43.6485 17.0012 43.5925 17.0012 43.5365 17.0012C43.4805 17.0012 43.4245 17.0012 43.3685 17.0012C43.3124 17.0012 43.2563 17.0012 43.2002 17.0012C43.1441 17.0012 43.088 17.0012 43.0318 17.0012C42.9757 17.0012 42.9195 17.0012 42.8633 17.0012C42.8071 17.0012 42.7508 17.0012 42.6946 17.0012C42.6383 17.0012 42.5821 17.0012 42.5258 17.0012C42.4695 17.0012 42.4131 17.0012 42.3568 17.0012C42.3004 17.0012 42.2441 17.0012 42.1877 17.0012C42.1313 17.0012 42.0749 17.0012 42.0184 17.0012C41.962 17.0012 41.9055 17.0012 41.849 17.0012C41.7926 17.0012 41.7361 17.0012 41.6795 17.0012C41.623 17.0012 41.5665 17.0012 41.5099 17.0012C41.4534 17.0012 41.3968 17.0012 41.3402 17.0012C41.2836 17.0012 41.227 17.0012 41.1703 17.0012C41.1137 17.0012 41.057 17.0012 41.0004 17.0012C40.9437 17.0012 40.887 17.0012 40.8303 17.0012C40.7736 17.0012 40.7168 17.0012 40.6601 17.0012C40.6033 17.0012 40.5466 17.0012 40.4898 17.0012C40.433 17.0012 40.3762 17.0012 40.3194 17.0012C40.2626 17.0012 40.2058 17.0012 40.149 17.0012C40.0921 17.0012 40.0353 17.0012 39.9784 17.0012C39.9215 17.0012 39.8646 17.0012 39.8077 17.0012C39.7508 17.0012 39.6939 17.0012 39.637 17.0012C39.5801 17.0012 39.5231 17.0012 39.4662 17.0012C39.4092 17.0012 39.3523 17.0012 39.2953 17.0012C39.2383 17.0012 39.1813 17.0012 39.1243 17.0012C39.0673 17.0012 39.0103 17.0012 38.9533 17.0012C38.8963 17.0012 38.8393 17.0012 38.7822 17.0012C38.7252 17.0012 38.6681 17.0012 38.6111 17.0012C38.554 17.0012 38.4969 17.0012 38.4398 17.0012C38.3828 17.0012 38.3257 17.0012 38.2686 17.0012C38.2115 17.0012 38.1544 17.0012 38.0973 17.0012C38.0402 17.0012 37.983 17.0012 37.9259 17.0012C37.8688 17.0012 37.8116 17.0012 37.7545 17.0012C37.6974 17.0012 37.6402 17.0012 37.583 17.0012C37.5259 17.0012 37.4687 17.0012 37.4116 17.0012C37.3544 17.0012 37.2972 17.0012 37.2401 17.0012C37.1829 17.0012 37.1257 17.0012 37.0685 17.0012C37.0113 17.0012 36.9541 17.0012 36.8969 17.0012C36.8397 17.0012 36.7825 17.0012 36.7253 17.0012C36.6681 17.0012 36.6109 17.0012 36.5537 17.0012C36.4965 17.0012 36.4393 17.0012 36.3821 17.0012C36.3249 17.0012 36.2677 17.0012 36.2105 17.0012C36.1533 17.0012 36.0961 17.0012 36.0388 17.0012C35.9816 17.0012 35.9244 17.0012 35.8672 17.0012C35.81 17.0012 35.7528 17.0012 35.6955 17.0012C35.6383 17.0012 35.5811 17.0012 35.5239 17.0012C35.4667 17.0012 35.4095 17.0012 35.3523 17.0012C35.2951 17.0012 35.2379 17.0012 35.1806 17.0012C35.1234 17.0012 35.0662 17.0012 35.009 17.0012C34.9518 17.0012 34.8946 17.0012 34.8374 17.0012C34.7803 17.0012 34.7231 17.0012 34.6659 17.0012C34.6087 17.0012 34.5515 17.0012 34.4943 17.0012C34.4372 17.0012 34.38 17.0012 34.3228 17.0012C34.2657 17.0012 34.2085 17.0012 34.1513 17.0012C34.0942 17.0012 34.037 17.0012 33.9799 17.0012C33.9227 17.0012 33.8656 17.0012 33.8085 17.0012C33.7514 17.0012 33.6942 17.0012 33.6371 17.0012C33.58 17.0012 33.5229 17.0012 33.4658 17.0012C33.4087 17.0012 33.3516 17.0012 33.2945 17.0012C33.2375 17.0012 33.1804 17.0012 33.1233 17.0012C33.0663 17.0012 33.0092 17.0012 32.9522 17.0012C32.8951 17.0012 32.8381 17.0012 32.7811 17.0012C32.724 17.0012 32.667 17.0012 32.61 17.0012C32.553 17.0012 32.4961 17.0012 32.4391 17.0012C32.3821 17.0012 32.3251 17.0012 32.2682 17.0012C32.2112 17.0012 32.1543 17.0012 32.0974 17.0012C32.0405 17.0012 31.9835 17.0012 31.9266 17.0012C31.8697 17.0012 31.8129 17.0012 31.756 17.0012C31.6991 17.0012 31.6423 17.0012 31.5854 17.0012C31.5286 17.0012 31.4718 17.0012 31.415 17.0012C31.3581 17.0012 31.3014 17.0012 31.2446 17.0012C31.1878 17.0012 31.131 17.0012 31.0743 17.0012C31.0175 17.0012 30.9608 17.0012 30.9041 17.0012C30.8474 17.0012 30.7907 17.0012 30.734 17.0012C30.6774 17.0012 30.6207 17.0012 30.5641 17.0012C30.5074 17.0012 30.4508 17.0012 30.3942 17.0012C30.3376 17.0012 30.281 17.0012 30.2245 17.0012C30.1679 17.0012 30.1114 17.0012 30.0548 17.0012C29.9983 17.0012 29.9418 17.0012 29.8853 17.0012C29.8289 17.0012 29.7724 17.0012 29.716 17.0012C29.6595 17.0012 29.6031 17.0012 29.5467 17.0012C29.4903 17.0012 29.4339 17.0012 29.3776 17.0012C29.3213 17.0012 29.2649 17.0012 29.2086 17.0012C29.1523 17.0012 29.096 17.0012 29.0398 17.0012C28.9835 17.0012 28.9273 17.0012 28.8711 17.0012C28.8149 17.0012 28.7587 17.0012 28.7026 17.0012C28.6464 17.0012 28.5903 17.0012 28.5342 17.0012C28.4781 17.0012 28.422 17.0012 28.3659 17.0012C28.3099 17.0012 28.2538 17.0012 28.1978 17.0012C28.1418 17.0012 28.0859 17.0012 28.0299 17.0012C27.974 17.0012 27.9181 17.0012 27.8622 17.0012C27.8063 17.0012 27.7504 17.0012 27.6946 17.0012C27.6388 17.0012 27.583 17.0012 27.5272 17.0012C27.4714 17.0012 27.4157 17.0012 27.36 17.0012C27.3042 17.0012 27.2486 17.0012 27.1929 17.0012C27.1373 17.0012 27.0816 17.0012 27.026 17.0012C26.9705 17.0012 26.9149 17.0012 26.8594 17.0012C26.8038 17.0012 26.7483 17.0012 26.6929 17.0012C26.6374 17.0012 26.582 17.0012 26.5266 17.0012C26.4712 17.0012 26.4158 17.0012 26.3605 17.0012C26.3051 17.0012 26.2498 17.0012 26.1946 17.0012C26.1393 17.0012 26.0841 17.0012 26.0289 17.0012C25.9737 17.0012 25.9185 17.0012 25.8634 17.0012C25.8083 17.0012 25.7532 17.0012 25.6981 17.0012C25.6431 17.0012 25.5881 17.0012 25.5331 17.0012C25.4781 17.0012 25.4232 17.0012 25.3683 17.0012C25.3134 17.0012 25.2585 17.0012 25.2037 17.0012C25.1488 17.0012 25.094 17.0012 25.0393 17.0012C24.9845 17.0012 24.9298 17.0012 24.8751 17.0012C24.8204 17.0012 24.7658 17.0012 24.7112 17.0012C24.6566 17.0012 24.602 17.0012 24.5475 17.0012C24.493 17.0012 24.4385 17.0012 24.3841 17.0012C24.3296 17.0012 24.2752 17.0012 24.2209 17.0012C24.1665 17.0012 24.1122 17.0012 24.0579 17.0012C24.0037 17.0012 23.9494 17.0012 23.8953 17.0012C23.8411 17.0012 23.7869 17.0012 23.7328 17.0012C23.6787 17.0012 23.6247 17.0012 23.5706 17.0012C23.5166 17.0012 23.4627 17.0012 23.4087 17.0012C23.3548 17.0012 23.3009 17.0012 23.2471 17.0012C23.1932 17.0012 23.1395 17.0012 23.0857 17.0012C23.032 17.0012 22.9783 17.0012 22.9246 17.0012C22.8709 17.0012 22.8173 17.0012 22.7638 17.0012C22.7102 17.0012 22.6567 17.0012 22.6032 17.0012C22.5498 17.0012 22.4963 17.0012 22.443 17.0012C22.3896 17.0012 22.3363 17.0012 22.283 17.0012C22.2297 17.0012 22.1765 17.0012 22.1233 17.0012C22.0701 17.0012 22.017 17.0012 21.9639 17.0012C21.9109 17.0012 21.8578 17.0012 21.8048 17.0012C21.7519 17.0012 21.6989 17.0012 21.6461 17.0012C21.5932 17.0012 21.5404 17.0012 21.4876 17.0012C21.4348 17.0012 21.3821 17.0012 21.3294 17.0012C21.2767 17.0012 21.2241 17.0012 21.1716 17.0012C21.119 17.0012 21.0665 17.0012 21.014 17.0012C20.9616 17.0012 20.9092 17.0012 20.8568 17.0012C20.8045 17.0012 20.7522 17.0012 20.6999 17.0012C20.6477 17.0012 20.5955 17.0012 20.5434 17.0012C20.4912 17.0012 20.4391 17.0012 20.3871 17.0012C20.3351 17.0012 20.2831 17.0012 20.2312 17.0012C20.1793 17.0012 20.1275 17.0012 20.0757 17.0012C20.0239 17.0012 19.9721 17.0012 19.9205 17.0012C19.8688 17.0012 19.8171 17.0012 19.7656 17.0012C19.714 17.0012 19.6625 17.0012 19.6111 17.0012C19.5596 17.0012 19.5082 17.0012 19.4569 17.0012C19.4056 17.0012 19.3543 17.0012 19.3031 17.0012C19.2519 17.0012 19.2007 17.0012 19.1496 17.0012C19.0985 17.0012 19.0475 17.0012 18.9965 17.0012C18.9456 17.0012 18.8947 17.0012 18.8438 17.0012C18.793 17.0012 18.7422 17.0012 18.6915 17.0012C18.6408 17.0012 18.5901 17.0012 18.5395 17.0012C18.4889 17.0012 18.4384 17.0012 18.3879 17.0012C18.3374 17.0012 18.287 17.0012 18.2367 17.0012C18.1863 17.0012 18.1361 17.0012 18.0859 17.0012C18.0357 17.0012 17.9855 17.0012 17.9354 17.0012C17.8853 17.0012 17.8353 17.0012 17.7854 17.0012C17.7354 17.0012 17.6855 17.0012 17.6357 17.0012C17.5859 17.0012 17.5362 17.0012 17.4865 17.0012C17.4368 17.0012 17.3872 17.0012 17.3376 17.0012C17.2881 17.0012 17.2386 17.0012 17.1892 17.0012C17.1398 17.0012 17.0904 17.0012 17.0412 17.0012C16.9919 17.0012 16.9427 17.0012 16.8935 17.0012C16.8444 17.0012 16.7953 17.0012 16.7464 17.0012C16.6974 17.0012 16.6484 17.0012 16.5996 17.0012C16.5507 17.0012 16.5019 17.0012 16.4532 17.0012C16.4045 17.0012 16.3559 17.0012 16.3073 17.0012C16.2587 17.0012 16.2102 17.0012 16.1618 17.0012C16.1134 17.0012 16.065 17.0012 16.0168 17.0012C15.9685 17.0012 15.9203 17.0012 15.8721 17.0012C15.824 17.0012 15.776 17.0012 15.728 17.0012C15.68 17.0012 15.6321 17.0012 15.5843 17.0012C15.5364 17.0012 15.4887 17.0012 15.441 17.0012C15.3933 17.0012 15.3457 17.0012 15.2982 17.0012C15.2506 17.0012 15.2032 17.0012 15.1558 17.0012C15.1084 17.0012 15.0611 17.0012 15.0139 17.0012C14.9667 17.0012 14.9195 17.0012 14.8725 17.0012C14.8254 17.0012 14.7784 17.0012 14.7315 17.0012C14.6846 17.0012 14.6378 17.0012 14.591 17.0012C14.5442 17.0012 14.4976 17.0012 14.451 17.0012C14.4044 17.0012 14.3579 17.0012 14.3114 17.0012C14.265 17.0012 14.2187 17.0012 14.1724 17.0012C14.1261 17.0012 14.0799 17.0012 14.0338 17.0012C13.9877 17.0012 13.9417 17.0012 13.8957 17.0012C13.8498 17.0012 13.8039 17.0012 13.7581 17.0012C13.7124 17.0012 13.6667 17.0012 13.621 17.0012C13.5754 17.0012 13.5299 17.0012 13.4845 17.0012C13.439 17.0012 13.3937 17.0012 13.3484 17.0012C13.3031 17.0012 13.2579 17.0012 13.2128 17.0012C13.1677 17.0012 13.1227 17.0012 13.0777 17.0012C13.0328 17.0012 12.9879 17.0012 12.9432 17.0012C12.8984 17.0012 12.8537 17.0012 12.8091 17.0012C12.7646 17.0012 12.7201 17.0012 12.6756 17.0012C12.6312 17.0012 12.5869 17.0012 12.5427 17.0012C12.4984 17.0012 12.4543 17.0012 12.4102 17.0012C12.3661 17.0012 12.3222 17.0012 12.2783 17.0012C12.2344 17.0012 12.1906 17.0012 12.1469 17.0012C12.1032 17.0012 12.0596 17.0012 12.0161 17.0012C11.9725 17.0012 11.9291 17.0012 11.8858 17.0012C11.8424 17.0012 11.7992 17.0012 11.756 17.0012C11.7128 17.0012 11.6698 17.0012 11.6268 17.0012C11.5838 17.0012 11.5409 17.0012 11.4982 17.0012C11.4554 17.0012 11.4127 17.0012 11.3701 17.0012C11.3275 17.0012 11.285 17.0012 11.2425 17.0012C11.2001 17.0012 11.1578 17.0012 11.1156 17.0012C11.0734 17.0012 11.0312 17.0012 10.9892 17.0012C10.9472 17.0012 10.9052 17.0012 10.8634 17.0012C10.8215 17.0012 10.7798 17.0012 10.7381 17.0012C10.6965 17.0012 10.6549 17.0012 10.6135 17.0012C10.572 17.0012 10.5307 17.0012 10.4894 17.0012C10.4481 17.0012 10.407 17.0012 10.3659 17.0012C10.3248 17.0012 10.2839 17.0012 10.243 17.0012C10.2021 17.0012 10.1614 17.0012 10.1207 17.0012C10.08 17.0012 10.0395 17.0012 9.99899 17.0012C9.95852 17.0012 9.91815 17.0012 9.87789 17.0012C9.83762 17.0012 9.79745 17.0012 9.75739 17.0012C9.71732 17.0012 9.67736 17.0012 9.6375 17.0012C9.59763 17.0012 9.55787 17.0012 9.51822 17.0012C9.47856 17.0012 9.439 17.0012 9.39955 17.0012C9.3601 17.0012 9.32076 17.0012 9.28151 17.0012C9.24227 17.0012 9.20313 17.0012 9.16409 17.0012C9.12506 17.0012 9.08612 17.0012 9.0473 17.0012C9.00847 17.0012 8.96975 17.0012 8.93114 17.0012C8.89252 17.0012 8.85401 17.0012 8.81561 17.0012C8.7772 17.0012 8.73891 17.0012 8.70072 17.0012C8.66253 17.0012 8.62444 17.0012 8.58647 17.0012C8.54849 17.0012 8.51062 17.0012 8.47286 17.0012C8.4351 17.0012 8.39745 17.0012 8.35991 17.0012C8.32237 17.0012 8.28493 17.0012 8.2476 17.0012C8.21028 17.0012 8.17306 17.0012 8.13596 17.0012C8.09885 17.0012 8.06185 17.0012 8.02497 17.0012C7.98808 17.0012 7.95131 17.0012 7.91464 17.0012C7.87798 17.0012 7.84142 17.0012 7.80498 17.0012C7.76854 17.0012 7.73221 17.0012 7.69599 17.0012C7.65978 17.0012 7.62367 17.0012 7.58768 17.0012C7.55169 17.0012 7.51581 17.0012 7.48004 17.0012C7.44427 17.0012 7.40862 17.0012 7.37308 17.0012C7.33755 17.0012 7.30212 17.0012 7.26681 17.0012C7.2315 17.0012 7.19631 17.0012 7.16123 17.0012C7.12615 17.0012 7.09118 17.0012 7.05633 17.0012C7.02149 17.0012 6.98675 17.0012 6.95214 17.0012C6.91752 17.0012 6.88302 17.0012 6.84864 17.0012C6.81426 17.0012 6.77999 17.0012 6.74584 17.0012C6.71169 17.0012 6.67766 17.0012 6.64375 17.0012C6.60984 17.0012 6.57605 17.0012 6.54237 17.0012C6.5087 17.0012 6.47514 17.0012 6.44171 17.0012C6.40827 17.0012 6.37495 17.0012 6.34176 17.0012C6.30856 17.0012 6.27548 17.0012 6.24253 17.0012C6.20957 17.0012 6.17674 17.0012 6.14402 17.0012C6.11131 17.0012 6.07872 17.0012 6.04625 17.0012C6.01377 17.0012 5.98143 17.0012 5.9492 17.0012C5.91697 17.0012 5.88487 17.0012 5.85289 17.0012C5.82091 17.0012 5.78905 17.0012 5.75732 17.0012C5.72558 17.0012 5.69397 17.0012 5.66249 17.0012C5.631 17.0012 5.59964 17.0012 5.5684 17.0012C5.53716 17.0012 5.50605 17.0012 5.47507 17.0012C5.44408 17.0012 5.41322 17.0012 5.38248 17.0012C5.35175 17.0012 5.32114 17.0012 5.29066 17.0012C5.26018 17.0012 5.22982 17.0012 5.19959 17.0012C5.16937 17.0012 5.13927 17.0012 5.10929 17.0012C5.07932 17.0012 5.04947 17.0012 5.01976 17.0012C4.99004 17.0012 4.96045 17.0012 4.931 17.0012C4.90154 17.0012 4.87221 17.0012 4.84301 17.0012C4.81381 17.0012 4.78474 17.0012 4.7558 17.0012C4.72686 17.0012 4.69805 17.0012 4.66937 17.0012C4.64069 17.0012 4.61214 17.0012 4.58372 17.0012C4.55531 17.0012 4.52702 17.0012 4.49887 17.0012C4.47072 17.0012 4.4427 17.0012 4.41481 17.0012C4.38692 17.0012 4.35917 17.0012 4.33154 17.0012C4.30392 17.0012 4.27643 17.0012 4.24908 17.0012C4.22172 17.0012 4.1945 17.0012 4.16742 17.0012C4.14033 17.0012 4.11338 17.0012 4.08656 17.0012C4.05975 17.0012 4.03306 17.0012 4.00652 17.0012C3.97997 17.0012 3.95356 17.0012 3.92729 17.0012C3.90101 17.0012 3.87488 17.0012 3.84888 17.0012C3.82287 17.0012 3.79701 17.0012 3.77128 17.0012C3.74556 17.0012 3.71997 17.0012 3.69452 17.0012C3.66907 17.0012 3.64376 17.0012 3.61858 17.0012C3.59341 17.0012 3.56837 17.0012 3.54348 17.0012C3.51858 17.0012 3.49382 17.0012 3.46921 17.0012C3.44459 17.0012 3.42011 17.0012 3.39578 17.0012C3.37144 17.0012 3.34725 17.0012 3.32319 17.0012C3.29914 17.0012 3.27522 17.0012 3.25145 17.0012C3.22768 17.0012 3.20405 17.0012 3.18056 17.0012C3.15707 17.0012 3.13373 17.0012 3.11053 17.0012C3.08732 17.0012 3.06426 17.0012 3.04135 17.0012C3.01843 17.0012 2.99566 17.0012 2.97303 17.0012C2.9504 17.0012 2.92792 17.0012 2.90558 17.0012C2.88324 17.0012 2.86104 17.0012 2.83899 17.0012C2.81694 17.0012 2.79504 17.0012 2.77328 17.0012C2.75152 17.0012 2.72991 17.0012 2.70844 17.0012C2.68698 17.0012 2.66566 17.0012 2.64449 17.0012C2.62331 17.0012 2.60229 17.0012 2.58141 17.0012C2.56053 17.0012 2.5398 17.0012 2.51922 17.0012C2.49864 17.0012 2.47821 17.0012 2.45792 17.0012C2.43764 17.0012 2.4175 17.0012 2.39752 17.0012C2.37753 17.0012 2.3577 17.0012 2.33801 17.0012C2.31832 17.0012 2.29879 17.0012 2.2794 17.0012C2.26002 17.0012 2.24078 17.0012 2.2217 17.0012C2.20262 17.0012 2.18368 17.0012 2.1649 17.0012C2.14612 17.0012 2.12749 17.0012 2.10902 17.0012C2.09054 17.0012 2.07222 17.0012 2.05405 17.0012C2.03588 17.0012 2.01786 17.0012 2 17.0012V20.0012ZM69.7344 20.0012C71.6673 20.0012 73.9797 20.1425 76.5455 20.2593C79.0807 20.3747 81.8191 20.4632 84.4854 20.3419C89.6859 20.1054 95.1734 19.0594 98.1887 15.2281L95.8312 13.3728C93.7201 16.0551 89.5264 17.1095 84.3491 17.345C81.8264 17.4597 79.2016 17.3771 76.6819 17.2624C74.1926 17.1491 71.758 17.0012 69.7344 17.0012V20.0012ZM98.1887 15.2281C99.4202 13.6633 100.011 12.0118 99.9261 10.3518C99.8417 8.70624 99.1031 7.24762 98.0406 6.03125C95.9513 3.63926 92.4082 1.93482 88.7485 1.09897C85.0727 0.259472 80.9782 0.226269 77.673 1.49008C76.0038 2.1283 74.4948 3.11462 73.3761 4.53607C72.2487 5.96848 71.5809 7.76339 71.483 9.89974L74.4799 10.037C74.5516 8.47185 75.0256 7.29094 75.7335 6.3915C76.45 5.48112 77.4698 4.77958 78.7444 4.29223C81.3266 3.30489 84.7791 3.26967 88.0805 4.02366C91.3979 4.78132 94.2623 6.26589 95.7812 8.00481C96.5228 8.85391 96.8885 9.69622 96.93 10.5054C96.9708 11.3 96.7093 12.257 95.8312 13.3728L98.1887 15.2281ZM71.483 9.89974C71.2078 15.9086 73.8658 20.3325 78.2054 23.48C82.4645 26.5692 88.3417 28.4408 94.6809 29.5967C107.365 31.9094 122.622 31.4667 132.292 31.4667V28.4667C122.46 28.4667 107.563 28.8961 95.219 26.6453C89.0438 25.5194 83.6878 23.7504 79.9668 21.0515C76.3262 18.411 74.2572 14.8994 74.4799 10.037L71.483 9.89974ZM132.292 31.4667C135.291 31.4667 156.496 30.0985 180.793 28.0323C205.109 25.9644 232.694 23.1832 248.468 20.3369L247.935 17.3846C232.32 20.2022 204.87 22.9739 180.539 25.043C156.188 27.1138 135.133 28.4667 132.292 28.4667V31.4667Z" fill="black"/>
</svg>
